HIERARCHY
ROOT Hips
{
	OFFSET -14.64140 90.27770 -84.91600
	CHANNELS 6 Xposition Yposition Zposition Zrotation Xrotation Yrotation
	JOINT Spine
	{
		OFFSET 0.00000 13.20850 -1.60436
		CHANNELS 3 Zrotation Xrotation Yrotation
		JOINT Spine1
		{
			OFFSET 0.00000 8.61716 0.00000
			CHANNELS 3 Zrotation Xrotation Yrotation
			JOINT Spine2
			{
				OFFSET 0.00000 8.61717 0.00000
				CHANNELS 3 Zrotation Xrotation Yrotation
				JOINT Spine3
				{
					OFFSET 0.00000 8.61717 0.00000
					CHANNELS 3 Zrotation Xrotation Yrotation
					JOINT Neck
					{
						OFFSET 0.00000 11.07920 1.10792
						CHANNELS 3 Zrotation Xrotation Yrotation
						JOINT Neck1
						{
							OFFSET 0.00000 7.08032 0.00000
							CHANNELS 3 Zrotation Xrotation Yrotation
							JOINT Head
							{
								OFFSET 0.00000 7.08031 0.00000
								CHANNELS 3 Zrotation Xrotation Yrotation
								End site
								{
									OFFSET 0.00000 0.00000 0.00000
								}
							}
						}
					}
					JOINT RightShoulder
					{
						OFFSET -0.01000 7.91373 5.19711
						CHANNELS 3 Zrotation Xrotation Yrotation
						JOINT RightArm
						{
							OFFSET -18.41580 0.00000 0.00000
							CHANNELS 3 Zrotation Xrotation Yrotation
							JOINT RightForeArm
							{
								OFFSET -29.11090 0.00000 0.00000
								CHANNELS 3 Zrotation Xrotation Yrotation
								JOINT RightHand
								{
									OFFSET -24.65040 0.00000 0.00000
									CHANNELS 3 Zrotation Xrotation Yrotation
									JOINT RightHandThumb1
									{
										OFFSET -5.35114 -0.85590 3.97906
										CHANNELS 3 Zrotation Xrotation Yrotation
										JOINT RightHandThumb2
										{
											OFFSET -4.52789 0.00000 0.00000
											CHANNELS 3 Zrotation Xrotation Yrotation
											JOINT RightHandThumb3
											{
												OFFSET -2.46976 0.00000 0.00000
												CHANNELS 3 Zrotation Xrotation Yrotation
												End site
												{
													OFFSET 0.00000 0.00000 0.00000
												}
											}
										}
									}
									JOINT RightHandIndex1
									{
										OFFSET -14.26970 0.00000 2.88139
										CHANNELS 3 Zrotation Xrotation Yrotation
										JOINT RightHandIndex2
										{
											OFFSET -5.48836 0.00000 0.00000
											CHANNELS 3 Zrotation Xrotation Yrotation
											JOINT RightHandIndex3
											{
												OFFSET -3.01859 0.00000 0.00000
												CHANNELS 3 Zrotation Xrotation Yrotation
												End site
												{
													OFFSET 0.00000 0.00000 0.00000
												}
											}
										}
									}
									JOINT RightHandMiddle1
									{
										OFFSET -14.26970 0.00000 -0.09147
										CHANNELS 3 Zrotation Xrotation Yrotation
										JOINT RightHandMiddle2
										{
											OFFSET -6.17441 0.00000 0.00000
											CHANNELS 3 Zrotation Xrotation Yrotation
											JOINT RightHandMiddle3
											{
												OFFSET -3.56743 0.00000 0.00000
												CHANNELS 3 Zrotation Xrotation Yrotation
												End site
												{
													OFFSET 0.00000 0.00000 0.00000
												}
											}
										}
									}
									JOINT RightHandRing1
									{
										OFFSET -12.69180 0.00000 -3.06433
										CHANNELS 3 Zrotation Xrotation Yrotation
										JOINT RightHandRing2
										{
											OFFSET -5.62556 0.00000 0.00000
											CHANNELS 3 Zrotation Xrotation Yrotation
											JOINT RightHandRing3
											{
												OFFSET -3.56744 0.00000 0.00000
												CHANNELS 3 Zrotation Xrotation Yrotation
												End site
												{
													OFFSET 0.00000 0.00000 0.00000
												}
											}
										}
									}
									JOINT RightHandPinky1
									{
										OFFSET -11.11390 0.00000 -6.03719
										CHANNELS 3 Zrotation Xrotation Yrotation
										JOINT RightHandPinky2
										{
											OFFSET -4.52789 0.00000 0.00000
											CHANNELS 3 Zrotation Xrotation Yrotation
											JOINT RightHandPinky3
											{
												OFFSET -2.46976 0.00000 0.00000
												CHANNELS 3 Zrotation Xrotation Yrotation
												End site
												{
													OFFSET 0.00000 0.00000 0.00000
												}
											}
										}
									}
								}
							}
						}
					}
					JOINT LeftShoulder
					{
						OFFSET 0.01000 7.91373 5.19711
						CHANNELS 3 Zrotation Xrotation Yrotation
						JOINT LeftArm
						{
							OFFSET 18.41580 0.00000 0.00000
							CHANNELS 3 Zrotation Xrotation Yrotation
							JOINT LeftForeArm
							{
								OFFSET 29.11090 0.00000 0.00000
								CHANNELS 3 Zrotation Xrotation Yrotation
								JOINT LeftHand
								{
									OFFSET 24.65040 0.00000 0.00000
									CHANNELS 3 Zrotation Xrotation Yrotation
									JOINT LeftHandThumb1
									{
										OFFSET 5.35114 -0.85590 3.97906
										CHANNELS 3 Zrotation Xrotation Yrotation
										JOINT LeftHandThumb2
										{
											OFFSET 4.52789 0.00000 0.00000
											CHANNELS 3 Zrotation Xrotation Yrotation
											JOINT LeftHandThumb3
											{
												OFFSET 2.46977 0.00000 0.00000
												CHANNELS 3 Zrotation Xrotation Yrotation
												End site
												{
													OFFSET 0.00000 0.00000 0.00000
												}
											}
										}
									}
									JOINT LeftHandIndex1
									{
										OFFSET 14.26970 0.00000 2.88139
										CHANNELS 3 Zrotation Xrotation Yrotation
										JOINT LeftHandIndex2
										{
											OFFSET 5.48836 0.00000 0.00000
											CHANNELS 3 Zrotation Xrotation Yrotation
											JOINT LeftHandIndex3
											{
												OFFSET 3.01859 0.00000 0.00000
												CHANNELS 3 Zrotation Xrotation Yrotation
												End site
												{
													OFFSET 0.00000 0.00000 0.00000
												}
											}
										}
									}
									JOINT LeftHandMiddle1
									{
										OFFSET 14.26970 0.00000 -0.09147
										CHANNELS 3 Zrotation Xrotation Yrotation
										JOINT LeftHandMiddle2
										{
											OFFSET 6.17440 0.00000 0.00000
											CHANNELS 3 Zrotation Xrotation Yrotation
											JOINT LeftHandMiddle3
											{
												OFFSET 3.56744 0.00000 0.00000
												CHANNELS 3 Zrotation Xrotation Yrotation
												End site
												{
													OFFSET 0.00000 0.00000 0.00000
												}
											}
										}
									}
									JOINT LeftHandRing1
									{
										OFFSET 12.69180 0.00000 -3.06433
										CHANNELS 3 Zrotation Xrotation Yrotation
										JOINT LeftHandRing2
										{
											OFFSET 5.62556 0.00000 0.00000
											CHANNELS 3 Zrotation Xrotation Yrotation
											JOINT LeftHandRing3
											{
												OFFSET 3.56744 0.00000 0.00000
												CHANNELS 3 Zrotation Xrotation Yrotation
												End site
												{
													OFFSET 0.00000 0.00000 0.00000
												}
											}
										}
									}
									JOINT LeftHandPinky1
									{
										OFFSET 11.11390 0.00000 -6.03719
										CHANNELS 3 Zrotation Xrotation Yrotation
										JOINT LeftHandPinky2
										{
											OFFSET 4.52789 0.00000 0.00000
											CHANNELS 3 Zrotation Xrotation Yrotation
											JOINT LeftHandPinky3
											{
												OFFSET 2.46976 0.00000 0.00000
												CHANNELS 3 Zrotation Xrotation Yrotation
												End site
												{
													OFFSET 0.00000 0.00000 0.00000
												}
											}
										}
									}
								}
							}
						}
					}
					JOINT pCube4
					{
						OFFSET 0.00000 10.91090 1.10792
						CHANNELS 3 Zrotation Xrotation Yrotation
						End site
						{
							OFFSET 0.00000 0.00000 0.00000
						}
					}
				}
			}
		}
	}
	JOINT RightUpLeg
	{
		OFFSET -9.98441 0.00000 0.00000
		CHANNELS 3 Zrotation Xrotation Yrotation
		JOINT RightLeg
		{
			OFFSET 0.00000 -42.11790 0.00000
			CHANNELS 3 Zrotation Xrotation Yrotation
			JOINT RightFoot
			{
				OFFSET 0.00000 -45.00020 -0.00001
				CHANNELS 3 Zrotation Xrotation Yrotation
				JOINT RightForeFoot
				{
					OFFSET 0.00000 -3.74820 0.00000
					CHANNELS 3 Zrotation Xrotation Yrotation
					JOINT RightToeBase
					{
						OFFSET 0.00000 0.06325 14.43120
						CHANNELS 3 Zrotation Xrotation Yrotation
						End site
						{
							OFFSET 0.00000 0.00000 0.00000
						}
					}
				}
			}
		}
	}
	JOINT LeftUpLeg
	{
		OFFSET 9.98441 0.00000 0.00000
		CHANNELS 3 Zrotation Xrotation Yrotation
		JOINT LeftLeg
		{
			OFFSET 0.00000 -42.11800 0.00000
			CHANNELS 3 Zrotation Xrotation Yrotation
			JOINT LeftFoot
			{
				OFFSET 0.00000 -45.00070 0.00000
				CHANNELS 3 Zrotation Xrotation Yrotation
				JOINT LeftForeFoot
				{
					OFFSET 0.00000 -3.74824 0.00000
					CHANNELS 3 Zrotation Xrotation Yrotation
					JOINT LeftToeBase
					{
						OFFSET 0.00000 0.06325 14.43110
						CHANNELS 3 Zrotation Xrotation Yrotation
						End site
						{
							OFFSET 0.00000 0.00000 0.00000
						}
					}
				}
			}
		}
	}
}
MOTION
Frames: 4
Frame Time: 0.050000
0.03246038837038731 -0.026927643750999125 0.006951554922997286 -0.043024898757799246 -0.014065279687115548 -0.02001531716014532 -1.5574050928148555 1.819044597079267 -0.9184156894032244 -0.970619889025147 3.9043694796209922 0.42883707595815423 -1.0433827833934055 -1.2665978411471401 -0.7189961476536673 0.6587600283304007 0.5007671305344288 -0.8131673692276972 0.01274108843334066 11.710832758328973 -1.131030181818682 0.08878907839365305 -1.0498548667090628 -4.387270565468646 0.666821488361784 -16.585503392316987 -0.33910752460288435 -2.0593590090342464 0.8781706166029145 -15.156037480592833 74.7031410991272 26.024693349423224 1.1045434181221938 11.628423955825516 2.269074235940285 47.04695592711243 21.41413282734303 0.03374049791144721 -4.959776256023871 4.56013252721445 -0.10072960361111584 -1.5809583032143149 -0.028155760693207046 -0.031331010951875425 -56.25981787433544 -0.008483858089306516 -0.0315361777748493 -56.21178201109366 -38.77870675075618 0.021788234343059185 -0.029830991422327945 0.017080563110399526 -0.000861414167723682 -0.047090423432049236 -0.021893620573249412 0.04855493272237526 -0.04045076698595194 -36.66710117459808 -0.049452590781802336 -0.015688206155102663 0.016556533640716194 0.014989294607976942 -0.022878089611730112 -0.010518165869252942 0.02325474657276521 0.00716864716732289 -19.714046267740198 -0.02479506572738078 0.024245555644560886 0.006265537947760009 0.04859291843213731 -0.049017887584949 -0.0270549660954534 -0.0016807256520396175 0.04209986817498346 24.038115555067726 0.0007717674395160963 -0.010503816547135518 28.886283315850655 -0.005710141647098882 0.03819047223028537 28.910166799544786 -0.012782586732749361 -0.020551223314216643 3.611939569477471 1.0290979297446472 13.800437806112763 -69.92237871045005 34.72642949070969 -6.64519401926322 -4.025547706185036 -3.267560670840255 -95.53070555046857 -14.57610584297547 -4.795441158964604 2.9743168593631064 -0.4923143871914935 0.04905204913707398 -8.121709022099214 -0.035601182583478545 -0.04525168129780281 44.57564951396578 -0.03551701922461623 -0.0033175532710437317 44.588301918159054 12.494381910933548 -0.0005870271600906549 0.012292568686427797 -0.044314611387506114 0.0010884833734168156 -0.016759685786294536 0.010720381877779593 0.043880574552837205 -0.03278528571763445 11.104832943197378 -0.026307764258925097 0.002846774182096413 0.00577444819203704 -0.03701414709123816 -0.023438118188951047 0.0019855357166809378 -0.04599923610008037 0.01808681654351869 4.784779719933645 0.009192989991665774 0.02288379006314357 -0.012842169725781746 0.0020872960049380424 -0.015526059086411857 0.007184476124614853 0.025670614917446887 0.0030374612952298024 -5.580906317294928 -0.04099420418818496 -0.03647144641517885 -6.709526497047773 0.02227780336352216 -0.013119715912009349 -6.725506054802121 0.008752106674954071 -0.017834985988169943 0.013154207831000254 0.008130899567687361 -0.020982443585114263 8.04723485032048 3.4863231958744163 -19.212549156153475 0.003952339278678083 10.353075026795583 -0.009082234299584272 -5.616258792106124 -15.653891972286383 3.191631729598755 0.0013851392634645816 -0.014582391600086097 -0.004408269395296251 0.028066473027565618 4.67996525492938 0.03871408796047991 12.472398286731222 -8.213014735956683 6.882340191704343 -0.048053524267394586 46.37690544559601 -0.03426798660503059 -4.323586225792262 -14.717505446094718 -3.8502976336499555 0.049690763757016504 0.01782109861634213 -0.045631195335241806 -0.013791133495383658 -10.732734454740266 -0.017489877357982412 
0.02087500249346897 -0.02578724026407521 0.003280972217420903 -0.02025695999215064 -0.03150068333269742 -0.003678627250054223 -1.4393809768807 1.631330603960575 -0.9079596498620706 -0.947760666193143 3.9339332418313178 0.379063589606088 -1.031150664990519 -1.3199816826644222 -0.7356442167951738 0.7179727915441965 0.46236055889086697 -0.7472185976615481 0.2027335525940493 11.741022159346308 -1.3345771087794418 0.2281995487842758 -0.9536378270867317 -4.835892984159292 0.7622161817181706 -16.480566336772107 -0.42227238331885647 -2.233903742166009 0.9402477019103961 -15.206346776099846 75.0790487433722 25.923801061938775 0.7613333036579129 12.350040822545795 2.686698550342921 46.81504491225703 21.81887209833551 0.0725996958247582 -4.9508247711111295 4.493934087689206 -0.1679815650167511 -1.5735595413066146 0.026706470877824913 0.0009225300254930023 -56.25883683124189 0.01811677999423653 -0.029537087466961348 -56.21308138805192 -38.78007892041163 -0.03071603579851343 -0.03200443293173302 0.024320048599853268 0.04111721662629642 -0.029488613821218562 0.029656369783434465 0.031124066561162882 0.008996290625787984 -36.719992896956995 -0.013989637283702195 -0.0371078930405377 -0.01378225324082038 0.009530424628318566 -0.04066546448665784 0.03707347970450706 0.04409879676610519 0.034667343613142415 -19.76786275282382 -0.019239215243253168 0.008901829105598261 0.028214573396916142 -0.03401164563359774 -0.026089045609873976 -0.018268631311289956 -0.0016716157267597856 -0.01780613784824576 24.05507905684958 -0.010231747378337002 -0.00736976568188507 28.866664489486922 -0.02716002561694146 -0.04358207902693975 28.81816874896151 0.022540990035307466 -0.0027847515721289838 3.5786928176811474 1.0180729538280988 13.678941790075667 -70.40125003619166 35.32129222548905 -5.621355842454392 -3.6981559632651853 -4.047929140263517 -96.29039531205169 -14.44378769116823 -4.980750080215729 2.581018683080507 -0.48758941418729146 0.046269443467163135 -8.122636287832432 0.02511569400774023 -0.02882567780854427 44.5876033631225 -0.030588739933252368 0.034871784122038764 44.523884900429884 12.460399184314271 -0.043517188471433044 0.009505719575026106 -0.04397004639634046 0.04005247952459111 0.023125124307008037 -0.010726185244310673 0.012622824525215865 0.030373215117806454 11.14796007473468 0.03360324112676847 0.019910945457277878 0.043083480024912954 -0.011846563389796423 -0.020393165883133176 -0.006544010727404428 0.034657052931900544 0.0043654626815470485 4.7342028863035175 0.04974960664005585 -0.023155563420728043 0.019298101483414865 0.0005355260301938815 -0.017749416528829415 0.04726186090127454 0.013364877600643232 0.02881682667760209 -5.627658992261619 0.01924909277118171 0.03604897418192555 -6.707831473900852 -0.03302764031495062 0.011734600261974308 -6.7493630315532105 0.007476764498334481 -0.023724537358455842 -0.03624745119599495 -0.007845246389188697 -0.0024073600249575706 8.044896751271109 3.5033747155627686 -19.190958986385766 -0.03545291736262956 10.399726380369833 -0.01140727547813098 -5.603094942935398 -15.661067001413874 3.2158193488852502 -0.015249669478815554 0.037543965925046184 0.007589953479065051 0.001245225942401833 4.710995620203014 0.0015603880047792497 12.445727446983568 -8.214569450710451 6.8491343770368545 0.0037711888238666992 46.417792927501026 0.02853586884722223 -4.315066637078271 -14.792534888843123 -3.7954051034028917 0.04849567665697234 -0.006237556269977169 -0.0463806116716235 -0.04565867609659287 -10.748858992810465 0.0420634556713715 
-0.011402049188763246 -0.012212482234694063 0.034013940747756724 -0.041970312361515515 0.0025821590933896997 0.007053691646241385 -1.3227057055991416 1.4224585396784988 -0.9622675160285784 -0.9534314915426121 3.822769624656848 0.3813615296412659 -1.051027145005625 -1.4172933438515174 -0.7231402333212603 0.7180617554285929 0.47149283536183084 -0.8022193080194371 0.20466079864223302 11.721288846513037 -1.4221235951656896 0.18034600164881137 -0.8396679876662507 -4.864056369025116 0.7939535121994014 -16.27279277746512 -0.4625369582088241 -2.4029653414297774 1.0496851281127813 -15.355931643031132 75.31088590134236 25.92668346171082 0.21359473261412074 12.942845656705474 3.319353665252047 46.517712835970016 22.060504481715792 0.10429716668467158 -4.9012706099929755 4.53029248368899 -0.16367862612205908 -1.5910184590829746 0.0033538251990242445 -0.03974406748022273 -56.18637610595367 -0.021078205752317173 0.00420247228351904 -56.221038177268305 -38.74118848515008 0.025102238806416745 0.01543485522945572 -0.0005120382109536886 -0.0014726699157958485 -0.03439111393430835 0.0077764227956031344 0.0012302253899857112 0.015449826826064854 -36.740628370210814 0.005500662929319899 -0.005369004932694322 0.04383564532990797 -0.01564910618711476 0.00918485302673698 0.0011851584751535306 -0.033440658143320874 0.028232060483636037 -19.736419512712963 0.016428752892185806 -0.018322022951076884 -0.02148798100637651 0.005499377062136129 0.030360713187687235 0.018732116507779235 0.007390574657793638 -0.010177051165874019 24.065081780600416 0.027228469051455782 0.01123264767570559 28.906876150126543 -0.008491513557696336 -0.012959065741630613 28.85722441512816 -0.007475077701590402 0.020096107306695733 3.7040174094302643 1.0759439324788278 13.681602167982764 -70.73812659735823 35.84464849293879 -4.787157709494593 -3.701943110261185 -4.672826174944674 -96.86591743627426 -14.09141582941158 -4.886988787133352 2.0862926934425126 -0.4637635654148074 0.09457634612716727 -8.083484826772409 -0.030208015127697486 0.031488419318713934 44.538494196123686 0.004514423840753058 0.011524706756171491 44.5842192533674 12.457633990951408 0.0009084277073633007 -0.01892902490187601 -0.035775439278544964 0.035530307467366296 -0.03501103181175041 0.026761538062737185 -0.04572855228367181 -0.028630220021143588 11.139969776424984 -0.04906008345860052 0.00030500748194408635 -0.015665004191267002 -0.027706763812637727 -0.012599368315273713 0.048917455661340085 -0.01243992730754794 0.01246673865531108 4.773738233881075 0.04500586090641358 -0.028508654350666105 -0.034005234043864144 0.016721707767502935 0.006110426236979474 -0.030283842477118534 0.04318349627089442 0.03775284670802255 -5.608968125361843 0.020104491692662915 0.021166893454469413 -6.7509480495963174 -0.02985875843231853 0.005882303249201667 -6.767883571924314 -0.030919784557606116 0.013444303899754052 -0.03275618405961466 -0.001582030555916994 0.018379894857688064 8.029146489479063 3.458425265125469 -19.20290432081575 -0.03994859880056669 10.417135258870886 0.03232512199029121 -5.643353750877988 -15.636220721586271 3.198462488100876 0.006051961108044307 0.0003237026915845928 -0.01659151152510366 -0.002154280821842943 4.696176783038865 0.02885285894697163 12.409643957042702 -8.19680609492665 6.921134927987823 -0.012461339696358755 46.38206826927037 -0.029132715687024795 -4.363587641868829 -14.784922433889351 -3.79708168302325 -0.015357242651859159 -0.03383861142770602 -0.004111167163669641 0.03922141879597006 -10.731522871506177 -0.04913019105731158 
0.02689355306877718 0.0076360417936920735 -0.0028733094172314916 -0.029591583924601445 0.04226944944534765 -0.035849679855776695 -1.3778074426450873 1.2493054107358368 -0.9154382479137332 -0.9205129321237204 3.9030305626246604 0.4123529559178943 -1.0332677121294584 -1.48893497499284 -0.733479953210942 0.654859291330624 0.4486114262428563 -0.8045403336499896 0.2010160448592385 11.916566773311928 -1.312054956671209 0.2682557906653514 -0.6802064817064503 -4.634129257062809 0.8594643996378811 -16.081780438701642 -0.3779811921931288 -2.4919639190520133 1.053102698988612 -15.33355033077831 75.57748926435877 26.131672349987486 -0.2207782935134457 13.507411653955508 3.7080852555933315 46.385822635683134 22.250807837343906 0.020120571713275484 -4.891520714663782 4.531266155742315 -0.13705711129239367 -1.575844460442705 -0.007458415377836168 0.023529878492696596 -56.27522012407979 -0.026569699401438763 -0.03273328981681732 -56.22994603013778 -38.81777917347609 0.001460075373452384 0.008724293511034709 -0.013484346083083486 0.010648765537414348 -0.005769534587851913 -0.04256511877490847 -0.025622844772527582 0.02343153120073572 -36.70453864369594 0.016982022308796457 0.006499014902582894 0.001763478070107538 -0.0030341806575745964 0.04683243078221974 -0.02247212802999744 -0.031182053807882443 -0.0014631116166362943 -19.734075549467928 0.004778807418525674 -0.009339835294052242 0.013631163189171699 0.022888849598598222 -0.015834314671559505 -0.026586718587115508 0.009073661150222779 0.015133823852747577 24.021206335884564 0.012295166177958073 -0.018485695468979272 28.86556172861906 -0.025967339984115392 0.039230971897238356 28.86287125365366 -0.029008891578592468 -0.008672303244022983 3.877711410100424 1.0769495704727636 13.766093085526634 -70.98200075982923 36.19325673530743 -4.49730045456459 -3.6157785588415585 -5.416285933072989 -97.76895754164327 -12.914654974868716 -4.622810082609388 1.3098779446421065 -0.4693106911196863 0.1126699775708665 -8.13415008562198 -0.016977566876514295 -0.03757928422202525 44.560961546020195 0.0443917843528163 -0.012418530004560944 44.54068547534062 12.491753568644427 0.04652225961385436 0.0012664750654733628 0.038129537663329466 0.008385030832101622 -0.015971828064195937 0.016572209383829854 -0.03016965438895613 -0.025323327294476367 11.084854481073355 -0.021206024388889026 -0.02021163728950637 -0.006859810442218336 -0.03085264760427477 0.01719518644384022 -0.04654633264386065 -0.04934011045679939 0.0046558650531604686 4.815951355654549 -0.013106832319167644 0.019184868464848306 -0.01285753333434542 0.0055932629528030455 0.031038682307244374 0.022454599028799566 -0.00031237735899774204 -0.010013728731672642 -5.591129620889723 0.0193614046638557 0.04603261669735116 -6.739599826215155 -0.03136767948134008 0.04792500696642683 -6.761852436410864 0.007955628867615552 -0.04657438792275586 -0.024282800710212948 -0.021369698493155963 0.035496154196163775 8.036907526302185 3.4759617117105046 -19.226574434330704 -0.04442826302239183 10.41859957835516 -0.007456801347956274 -5.594956048829491 -15.63645868116938 3.195474602011808 -0.019857019561031457 0.005360419314083501 -0.008512880462928994 0.006609522703984538 4.655764637657104 0.03199088688100856 12.448584398268881 -8.233449651852593 6.847179543776341 -0.005977615459172694 46.3321215746966 -0.01623648158007832 -4.325220080916876 -14.759484190449971 -3.8495999357515727 0.01601029603423847 -0.0244264541967304 0.028600415785329958 0.030372880176333373 -10.711033073723623 -0.012214426926734068 
